# xmcd CD database file
#
# Track frame offsets:
#	150
#	23380
#	49042
#	80895
#	103489
#	121789
#	145870
#	171965
#	224895
#	241821
#	256576
#	286013
#	311696
#	334839
#
# Disc length: 4696 seconds
#
# Revision: 2
# Processed by: cddbd v1.4PL0 Copyright (c) Steve Scherf et al.
# Submitted via: CDex 1.50
#
DISCID=c712560e
DTITLE=Tom Waits - At the Cirkus 14/jul/99 cd 2
DYEAR=1999
DGENRE=Blues
TTITLE0=Shore leave
TTITLE1=Pony
TTITLE2=Filipino box spring hog
TTITLE3=Come on up to the house
TTITLE4=House where nobody lives
TTITLE5=Singapore
TTITLE6=The heart of Saturday night
TTITLE7=Going out west
TTITLE8=I can't wait to get off work
TTITLE9=Picture in a frame
TTITLE10=Who are you
TTITLE11=Heartattack and vine
TTITLE12=Time
TTITLE13=Chocolate Jesus
EXTD=YEAR: 1999
EXTT0=
EXTT1=
EXTT2=
EXTT3=
EXTT4=
EXTT5=
EXTT6=
EXTT7=
EXTT8=
EXTT9=
EXTT10=
EXTT11=
EXTT12=
EXTT13=
PLAYORDER=
